<svg width="466" height="374" viewBox="0 0 466 374" fill="none" xmlns="http://www.w3.org/2000/svg">
<path d="M0.110916 47.3338C0.110916 34.9818 5.0177 23.1358 13.7518 14.4017C22.486 5.66753 34.332 0.760742 46.6839 0.760742H419.268C431.62 0.760742 443.466 5.66753 452.2 14.4017C460.934 23.1358 465.841 34.9818 465.841 47.3338V326.772C465.841 339.124 460.934 350.97 452.2 359.704C443.466 368.438 431.62 373.345 419.268 373.345H46.6839C34.332 373.345 22.486 368.438 13.7518 359.704C5.0177 350.97 0.110916 339.124 0.110916 326.772V47.3338ZM82.0562 47.3338L232.976 179.392L383.896 47.3338H82.0562ZM419.268 78.2816L248.322 227.874C244.075 231.595 238.622 233.646 232.976 233.646C227.33 233.646 221.877 231.595 217.63 227.874L46.6839 78.2816V326.772H419.268V78.2816Z" fill="#0D0D0D"/>
</svg>
