<svg width="155" height="179" viewBox="0 0 155 179" fill="none" xmlns="http://www.w3.org/2000/svg">
<path d="M152.363 58.3334C143.222 18.1095 108.135 0 77.3136 0C77.3136 0 77.3136 0 77.2265 0C46.4924 0 11.3182 18.0224 2.17643 58.2463C-8.01015 103.172 19.5023 141.219 44.4029 165.162C53.6317 174.042 65.4728 178.483 77.3136 178.483C89.1544 178.483 100.995 174.042 110.137 165.162C135.038 141.219 162.55 103.259 152.363 58.3334ZM77.3136 101.953C62.1643 101.953 49.8879 89.6767 49.8879 74.5274C49.8879 59.3782 62.1643 47.102 77.3136 47.102C92.4629 47.102 104.739 59.3782 104.739 74.5274C104.739 89.6767 92.4629 101.953 77.3136 101.953Z" fill="#292D32"/>
</svg>
