<svg width="466" height="468" viewBox="0 0 466 468" fill="none" xmlns="http://www.w3.org/2000/svg">
<path d="M211.175 302.78L168.029 345.926C158.933 355.021 144.474 355.021 135.145 346.159C132.58 343.594 130.014 341.261 127.449 338.696C103.427 314.441 81.7378 289.02 62.3806 262.433C43.2566 235.846 27.8641 209.259 16.6695 182.905C5.70819 156.318 0.110916 130.897 0.110916 106.642C0.110916 90.7835 2.90955 75.6243 8.50682 61.6311C14.1041 47.4047 22.9664 34.3444 35.3271 22.6834C50.2531 7.99055 66.5785 0.760742 83.8368 0.760742C90.3669 0.760742 96.8971 2.16006 102.728 4.9587C108.791 7.75733 114.155 11.9553 118.353 18.019L172.46 94.2818C176.658 100.112 179.69 105.476 181.789 110.607C183.888 115.505 185.054 120.402 185.054 124.834C185.054 130.431 183.422 136.028 180.156 141.392C177.125 146.756 172.693 152.354 167.096 157.951L149.371 176.375C146.806 178.941 145.64 181.972 145.64 185.704C145.64 187.57 145.873 189.202 146.34 191.068C147.039 192.934 147.739 194.333 148.205 195.732C152.403 203.429 159.633 213.457 169.895 225.584C180.39 237.712 191.584 250.073 203.712 262.433C206.044 264.765 208.609 267.098 210.941 269.43C220.27 278.525 220.503 293.451 211.175 302.78Z" fill="#292D32"/>
<path d="M465.841 381.586C465.841 388.117 464.675 394.88 462.343 401.41C461.643 403.276 460.944 405.142 460.011 407.007C456.046 415.403 450.915 423.333 444.152 430.796C432.724 443.39 420.13 452.485 405.904 458.316C405.67 458.316 405.437 458.549 405.204 458.549C391.444 464.146 376.518 467.178 360.426 467.178C336.638 467.178 311.217 461.581 284.396 450.153C257.576 438.725 230.756 423.333 204.169 403.975C195.073 397.212 185.978 390.449 177.349 383.219L253.611 306.956C260.141 311.854 265.972 315.585 270.87 318.151C272.036 318.617 273.435 319.317 275.068 320.016C276.933 320.716 278.799 320.949 280.898 320.949C284.863 320.949 287.895 319.55 290.46 316.985L308.185 299.493C314.015 293.663 319.612 289.231 324.977 286.433C330.341 283.168 335.705 281.535 341.535 281.535C345.966 281.535 350.631 282.468 355.761 284.567C360.892 286.666 366.256 289.698 372.087 293.663L449.283 348.469C455.346 352.667 459.544 357.565 462.11 363.395C464.442 369.226 465.841 375.056 465.841 381.586Z" fill="#292D32"/>
</svg>
